<?xml version="1.0" encoding="UTF-8" standalone="no"?>
<svg
   xmlns:dc="http://purl.org/dc/elements/1.1/"
   xmlns:cc="http://creativecommons.org/ns#"
   xmlns:rdf="http://www.w3.org/1999/02/22-rdf-syntax-ns#"
   xmlns:svg="http://www.w3.org/2000/svg"
   xmlns="http://www.w3.org/2000/svg"
   version="1.1"
   id="svg4338"
   viewBox="0 0 177 177"
   height="177"
   width="177">
  <defs
     id="defs4340" />
  <metadata
     id="metadata4343">
    <rdf:RDF>
      <cc:Work
         rdf:about="">
        <dc:format>image/svg+xml</dc:format>
        <dc:type
           rdf:resource="http://purl.org/dc/dcmitype/StillImage" />
        <dc:title></dc:title>
      </cc:Work>
    </rdf:RDF>
  </metadata>
  <g
     transform="translate(-480.981,-424.164)"
     id="layer1">
    <path
       id="rect4140"
       transform="translate(480.981,424.164)"
       d="m 76.84375,1 c -6.68812,0 -11.181438,5.1713969 -11.179688,12.873047 0,0.23571 0.02131,0.461856 0.03711,0.691406 l -3.123047,2.339844 4.302734,5.744141 1.810547,-1.357422 c 1.26803,1.329 2.813613,2.33188 4.382813,2.96875 l 3.294922,16.820312 c 1.248432,-1.425305 2.714853,-2.63012 4.36914,-3.539062 0.642401,-0.35304 1.342881,-0.641355 2.080078,-0.873047 L 80.509766,24.894531 c 1.57456,-0.2193 3.327109,-0.716854 4.943359,-1.958984 1.25838,-0.96475 2.224904,-2.231649 2.927734,-3.761719 l 5.498047,0.9375 1.207032,-7.072266 -5.375,-0.917968 C 89.671537,6.7604237 84.7615,1 76.84375,1 Z m 0,7.1796875 c 3.97662,0 5.695312,2.6508165 5.695312,4.0039065 0,2.54434 -0.515091,4.340704 -1.451171,5.058594 -0.75486,0.580679 -1.963851,0.65625 -2.931641,0.65625 l -1.3125,-0.01758 c -0.81997,0 -4.007812,-1.241589 -4.007812,-4.005859 0,-2.12735 0.522092,-5.6953125 4.007812,-5.6953125 z m 67.19727,5.3359375 c -4.54108,0 -8.06514,2.389248 -9.86329,6.330078 l -7.25781,-1.376953 -1.20703,7.072266 7.17969,1.367187 c 0.0823,1.69101 0.54695,3.215072 1.28125,4.544922 l -30.50195,31.160156 c 3.04632,0.126172 6.15465,0.368703 9.20117,0.863281 l 26.51757,-27.099609 c 1.56124,0.77964 3.19463,1.195313 4.6504,1.195313 l 1.3125,0.01758 14.2832,61.175781 c -0.2636,0.1132 -0.51706,0.24131 -0.76758,0.375 L 134.26562,88.539062 c -0.0172,0.06428 -0.029,0.129126 -0.0469,0.19336 -0.16888,0.6076 -0.36252,1.207777 -0.57422,1.804687 l -0.002,0.0059 -0.004,0.0059 c -0.62697,1.750852 -1.43966,3.23939 -2.35742,4.519531 l 22.68164,9.773441 c -0.68084,1.72626 -1.05859,3.71308 -1.05859,5.91406 0,2.61574 0.92878,4.84681 2.33593,6.61523 l -16.93164,34.80274 c -0.8586,-0.15449 -1.76107,-0.24219 -2.70898,-0.24219 -0.82987,0 -1.62299,0.0782 -2.38086,0.23242 l -8.49805,-13.17187 4.70703,-2.50586 -3.37109,-6.33789 -5.24023,2.79101 -2.37696,-3.68554 c -0.1722,0.23057 -0.42369,0.57585 -0.45703,0.61718 l -0.006,0.008 -1.77344,2.17773 -2.77734,0.35352 -0.002,0 c -0.15785,0.0199 -0.70535,0.0668 -1.42188,0.10742 l 15.12305,23.44531 c -1.7203,2.22278 -2.70508,5.25224 -2.70508,8.8418 0,6.92744 6.51153,11.17969 11.17969,11.17969 L 136.91406,176 c 1.93905,0 4.80552,-0.22047 7.29883,-2.13477 2.82938,-2.16781 4.26172,-5.78643 4.26172,-10.75195 0,-2.78286 -1.33123,-5.67378 -3.70508,-7.82226 l 16.47461,-33.86133 c 0.97471,0.3033 1.94396,0.5039 2.8418,0.5039 l 1.31054,0.0234 c 1.9373,0 4.80376,-0.22611 7.29883,-2.13867 2.8294,-2.16778 4.26172,-5.78841 4.26172,-10.75391 0,-4.72019 -3.79288,-9.767737 -10.09765,-10.931638 L 152.28125,35.703125 c 0.12332,-0.0856 0.2493,-0.15648 0.37109,-0.25 2.82938,-2.16781 4.26172,-5.788416 4.26172,-10.753906 0,-5.37727 -4.92154,-11.183594 -12.87304,-11.183594 z m -38.34375,1.333984 -1.20508,7.072266 10.60937,1.808594 1.20508,-7.072266 z m 38.34375,5.841797 c 3.97663,0 5.69726,2.656473 5.69726,4.007813 0,2.54434 -0.51702,4.340704 -1.45312,5.058593 -0.75661,0.58068 -1.96212,0.652344 -2.93164,0.652344 l -1.3125,-0.01563 c -0.81996,0 -4.00391,-1.243512 -4.00391,-4.007812 0,-2.12732 0.5182,-5.69336 4.00391,-5.69336 z m -90.082036,2.660156 -8.615234,6.455079 4.302734,5.746093 8.615235,-6.455078 z m -17.230468,12.908204 -8.617188,6.451172 4.302734,5.746093 8.615235,-6.455078 z m -24.544922,10.191406 0,0.002 C 5.4954437,46.453125 1,51.626089 1,59.324219 c 0,6.93096 6.5119138,11.18164 11.183594,11.18164 l 1.3125,0.02344 c 1.30929,0 3.041335,-0.116958 4.796875,-0.773438 l 17.15625,23.296875 c -1.37557,2.13317 -2.154297,4.87703 -2.154297,8.062496 0,4.1711 2.365012,7.36416 5.263672,9.25196 l -4.525391,22.5957 c -6.44872,0.21848 -10.755859,5.31881 -10.755859,12.85156 0,6.92743 6.51176,11.1836 11.18164,11.1836 l 1.3125,0.0176 c 1.93727,0 4.801775,-0.22207 7.296875,-2.13476 0.96932,-0.74327 1.762384,-1.67084 2.402344,-2.75 l 22.306641,7.54687 c 0.14765,6.78626 6.553962,10.94922 11.169922,10.94922 l 1.3125,0.0176 c 1.93728,0 4.801815,-0.22046 7.296875,-2.13476 2.82941,-2.16781 4.259765,-5.78839 4.259765,-10.75391 0,-3.88341 -2.575514,-7.97659 -6.996094,-9.95898 l 2.601563,-22.5 c -0.784042,-0.54682 -1.567744,-1.12969 -2.347656,-1.75977 l -0.002,0 c -0.11798,-0.0954 -0.212215,-0.19862 -0.328125,-0.29492 -1.391708,0.73573 -2.90617,1.24447 -4.488282,1.54492 l -2.52539,21.84375 c -0.39203,0.0386 -0.776401,0.0983 -1.150391,0.17383 l -1.908203,-3.40039 -6.257813,3.51562 2.0625,3.67383 c -0.470069,0.60633 -0.883761,1.27532 -1.238281,1.99805 l -21.947265,-7.41992 c 0.0164,-0.3465 0.03906,-0.68415 0.03906,-1.04493 0,-3.6719 -2.296303,-7.54417 -6.283203,-9.63086 l 4.441406,-22.18554 0.300781,0.002 c 0.860571,0 1.91824,-0.0723 3.03125,-0.28906 l 3.78125,6.73047 6.257813,-3.51368 -3.910156,-6.96289 0,-0.002 c 1.5946,-2.16508 2.402343,-5.13069 2.402343,-8.853515 l 0,-0.0078 1.570313,-0.714843 c 0.07682,-0.30239 0.134137,-0.599845 0.21875,-0.904297 0.80188,-2.885341 1.934203,-5.755806 3.240234,-8.556641 l -7.638671,3.478516 c -2.214591,-2.60359 -5.750595,-4.478516 -10.265626,-4.478516 -1.17705,0 -2.280013,0.16879 -3.308593,0.47461 L 26.039062,68.171875 49.78125,72.4375 c -0.684755,-0.66683 -1.243467,-1.476809 -1.609375,-2.412109 l 0,-0.002 c -0.680799,-1.74375 -0.993987,-3.557841 -0.990234,-5.345704 L 24.835938,60.662109 c 0.13454,-0.94934 0.216796,-1.949953 0.216796,-3.027343 0,-5.37727 -4.91939,-11.183594 -12.86914,-11.183594 z m 0,7.177734 c 3.97662,0 5.693359,2.652943 5.693359,4.007813 0,2.54434 -0.517055,4.340674 -1.453125,5.058593 -0.75486,0.58065 -1.959974,0.652344 -2.927734,0.652344 l -1.3125,-0.01563 c -0.81997,0 -4.0078128,-1.243542 -4.0078128,-4.007812 0,-2.12734 0.5220925,-5.695313 4.0078128,-5.695313 z m 32.292968,41.78711 c 3.974871,0 5.697439,2.652759 5.699219,4.005859 0,2.544345 -0.518988,4.340705 -1.455078,5.058595 -0.75661,0.5789 -1.963881,0.6543 -2.931641,0.6543 l -1.3125,-0.0176 c -0.82172,0 -4.003906,-1.24334 -4.003906,-4.00586 0,-2.129092 0.518186,-5.695314 4.003906,-5.695314 z m 119.609378,9.642574 c 3.97312,0 5.6914,2.65295 5.6914,4.00782 0,2.54434 -0.51135,4.3407 -1.44922,5.05859 -0.75482,0.5789 -1.9621,0.65234 -2.93164,0.65234 l -1.31054,-0.0156 c -0.82172,0 -4.00586,-1.24139 -4.00586,-4.00391 0,-2.12907 0.52017,-5.69922 4.00586,-5.69922 z m -19.02539,14.97461 -9.50196,5.05469 3.3711,6.33789 9.5039,-5.05664 z m -80.931644,4.59375 -6.259765,3.51563 5.269531,9.38672 6.257812,-3.51368 z m -29.669922,15.48828 c 3.97487,0 5.693563,2.65469 5.695313,4.00782 0,2.54434 -0.517025,4.34067 -1.453125,5.05859 -0.75486,0.57713 -1.961928,0.6543 -2.929688,0.6543 l -1.3125,-0.0176 c -0.82172,0 -4.005859,-1.24139 -4.005859,-4.00391 0,-2.12906 0.520169,-5.69726 4.005859,-5.69726 z m 72.589846,0.13868 -9.500002,5.05859 3.375002,6.33398 9.5,-5.05859 z M 78.947266,153.75 c 3.97665,0 5.693359,2.65099 5.693359,4.00586 0,2.54256 -0.517025,4.34067 -1.453125,5.05859 -0.75483,0.57712 -1.959974,0.6543 -2.927734,0.6543 l -1.3125,-0.0176 c -0.81994,0 -4.007813,-1.23981 -4.007813,-4.00586 0,-2.59714 0.696303,-5.69531 4.007813,-5.69531 z m 56.652344,5.35352 c 3.97662,0 5.69531,2.65861 5.69531,4.01171 0,2.54259 -0.51508,4.34071 -1.45117,5.0586 -0.75661,0.57715 -1.96193,0.65234 -2.92969,0.65234 l -1.31445,-0.0156 c -0.81997,0 -4.00391,-1.24528 -4.00391,-4.00782 2e-5,-2.12907 0.51819,-5.69726 4.00391,-5.69726 z"
       style="fill:#101314;fill-opacity:1" />
    <path
       style="opacity:1;fill:#ffb216;fill-opacity:1;stroke:none;stroke-width:1;stroke-linejoin:round;stroke-miterlimit:4;stroke-dasharray:none;stroke-dashoffset:0;stroke-opacity:1"
       id="path4253"
       d="m 563.83709,465.56085 c -4.51122,2.47868 -7.81023,9.21014 -6.37642,15.96006 -0.45451,0.19196 -0.88248,0.39868 -1.2756,0.62221 -0.42036,0.23762 -0.81171,0.50653 -1.19007,0.7935 -5.12314,-4.68497 -13.02451,-5.09475 -17.8823,-2.27527 -4.28359,2.48798 -5.76394,7.05734 -3.86309,11.92604 0.52268,1.33603 2.03128,1.99814 3.36901,1.47593 1.33819,-0.52389 1.99647,-2.03175 1.47593,-3.36901 -0.98756,-2.51749 -0.45001,-4.32877 1.62998,-5.53508 3.16795,-1.8393 8.67792,-1.34226 11.96222,1.84953 -0.38238,0.78051 -0.70674,1.62391 -0.96109,2.53895 -1.11419,4.00917 -0.72689,8.42127 -0.49337,11.05659 l 0.0478,0.55289 c 0.19988,2.37421 0.46649,4.66433 0.79629,6.88216 -2.79728,4.80955 -5.33057,10.10613 -6.71765,15.09716 -1.76717,6.35857 -1.49037,11.49182 0.82272,15.2591 1.95415,3.18187 5.25825,5.26035 9.82545,6.17889 4.59315,0.92218 8.3563,-0.0555 11.05912,-2.77783 0.88593,0.87039 1.79665,1.70988 2.75279,2.48287 11.77067,9.50937 24.49588,7.99861 25.03458,7.93069 l 1.0294,-0.13125 0.65552,-0.80534 c 0.1482,-0.18375 3.6684,-4.56565 5.67504,-11.7858 1.41585,-5.09453 2.01994,-11.24208 0.55665,-18.08656 0.0684,-0.0137 0.13918,-0.0164 0.20809,-0.0303 2.75005,-0.56862 6.46004,-2.44254 8.50048,-8.14053 0.18293,-0.51579 0.34454,-1.01952 0.48145,-1.5121 1.41817,-5.10287 0.44749,-9.60332 -2.80627,-13.01507 -5.42004,-5.68126 -16.43508,-7.47623 -26.42968,-7.67448 -2.14197,-1.86522 -4.47666,-3.74261 -7.0373,-5.62886 -4.80778,-3.54144 -8.83335,-4.78434 -12.09336,-4.84674 -1.00596,-4.4383 0.98832,-8.91519 3.75317,-10.43664 1.76864,-0.97263 3.49307,-0.39447 5.11933,1.72136 0.87643,1.13755 2.51035,1.34881 3.64745,0.47407 0.46305,-0.35876 0.77286,-0.83927 0.91811,-1.3619 0.21164,-0.76145 0.0749,-1.60887 -0.44453,-2.28386 -3.81811,-4.95366 -8.57172,-4.85194 -11.7499,-3.10533 z m 40.55143,36.72965 c 2.22778,2.33335 2.60031,5.26453 1.19239,9.18488 -1.32941,3.71554 -3.29594,4.51987 -4.65894,4.80299 -0.18895,0.0391 -0.399,0.0314 -0.59479,0.0561 -1.77124,0.21821 -3.82467,-0.15996 -6.05103,-0.98375 -1.53843,-0.5678 -3.14675,-1.32422 -4.80274,-2.25215 -2.65013,-1.48661 -5.39307,-3.36414 -8.06856,-5.39381 -1.99185,-1.51232 -3.94047,-3.10254 -5.7848,-4.6926 -2.4916,-2.14763 -4.79022,-4.27766 -6.71738,-6.15871 l 0.17309,-0.0976 c 5.16169,-0.59268 12.02396,-0.80627 18.46708,-0.18485 7.0878,0.68369 13.65602,2.37601 16.84592,5.71965 z m -48.35833,37.18471 c -3.13626,-0.63058 -5.23568,-1.87239 -6.41943,-3.8005 -1.52657,-2.48744 -1.60819,-6.23897 -0.24391,-11.14813 0.75781,-2.72678 1.91129,-5.58282 3.2736,-8.4006 2.85158,-5.8917 6.62416,-11.59578 9.65099,-15.53568 l 0.1195,-0.0673 c 0.56104,2.39537 1.22624,5.50322 1.81592,8.92826 0.40622,2.35055 0.77156,4.84802 1.0429,7.37336 0.35635,3.29362 0.53652,6.61926 0.42982,9.70865 -0.073,2.08789 -0.28421,4.05817 -0.67086,5.83764 -0.0867,0.40223 -0.17063,0.81417 -0.27634,1.19491 -0.53181,1.91357 -1.23297,3.35558 -2.14941,4.36185 -1.5215,1.66908 -3.63903,2.13647 -6.57289,1.54773 z m 13.00269,-32.74111 1.76041,-0.99472 c 1.7424,1.5491 3.65498,3.16533 5.67336,4.75694 l -6.28849,3.55326 c -0.32408,-2.54896 -0.72191,-5.02672 -1.14528,-7.31548 z m 1.876,16.85414 13.37451,-7.5558 c 2.44161,1.51858 4.9156,2.84291 7.33396,3.8172 l -21.19391,11.97693 c 0.40111,-2.55612 0.53627,-5.35337 0.48544,-8.23833 z m 26.03614,11.16801 -17.49333,9.88453 c -2.25039,-0.95097 -4.59837,-2.26907 -6.90671,-4.05999 l 24.72497,-13.97076 c 0.25375,2.918 0.0982,5.64661 -0.32493,8.14622 z m -25.34568,-45.17239 c 0.72686,0.53658 1.43111,1.07047 2.11939,1.60351 -4.21241,0.24501 -7.78243,0.70256 -10.00758,1.13643 -0.5019,-0.008 -0.9906,0.12742 -1.41719,0.394 -0.44784,0.22641 -0.81617,0.58081 -1.06847,1.01613 -1.55484,1.70485 -3.58276,4.26387 -5.72968,7.35469 -0.0109,-0.12524 -0.0273,-0.24665 -0.0369,-0.37183 l -0.0498,-0.57144 c -0.20153,-2.28468 -0.53688,-6.10672 0.32487,-9.20754 0.56988,-2.05048 1.55323,-3.44645 3.00853,-4.26877 3.34115,-1.88647 7.66669,-0.90742 12.85692,2.91482 z" />
  </g>
</svg>
